<svg width="1102" height="161" viewBox="0 0 1102 161" fill="none" xmlns="http://www.w3.org/2000/svg">
<path d="M37.9109 2.28071V158H0.371457V2.28071H37.9109ZM98.4447 67.0924V95.969H27.2159V67.0924H98.4447ZM104.541 2.28071V31.2642H27.2159V2.28071H104.541ZM120.156 2.28071H181.438C193.416 2.28071 203.826 4.06321 212.667 7.62822C221.509 11.1932 228.318 16.4694 233.095 23.4568C237.943 30.4442 240.367 39.0715 240.367 49.3387C240.367 58.2512 238.977 65.7021 236.196 71.6913C233.416 77.6805 229.53 82.6359 224.539 86.5574C219.619 90.4076 213.879 93.5804 207.32 96.0759L195.021 103.028H143.578L143.364 74.0442H181.438C186.215 74.0442 190.172 73.1886 193.309 71.4774C196.447 69.7662 198.799 67.342 200.368 64.2048C202.008 60.9963 202.828 57.1817 202.828 52.7611C202.828 48.2692 202.008 44.419 200.368 41.2105C198.728 38.002 196.304 35.5422 193.095 33.831C189.958 32.1198 186.072 31.2642 181.438 31.2642H157.695V158H120.156V2.28071ZM205.395 158L170.957 89.1242L210.742 88.9103L245.608 156.396V158H205.395ZM394.803 77.0388V83.3489C394.803 95.256 393.128 105.951 389.777 115.434C386.497 124.845 381.827 132.902 375.766 139.605C369.706 146.235 362.54 151.333 354.269 154.898C345.998 158.392 336.872 160.139 326.89 160.139C316.837 160.139 307.639 158.392 299.297 154.898C291.026 151.333 283.825 146.235 277.693 139.605C271.632 132.902 266.927 124.845 263.576 115.434C260.296 105.951 258.656 95.256 258.656 83.3489V77.0388C258.656 65.1317 260.296 54.4367 263.576 44.9538C266.927 35.4709 271.597 27.414 277.586 20.7831C283.647 14.0809 290.812 8.98292 299.083 5.48922C307.425 1.92421 316.623 0.141712 326.676 0.141712C336.658 0.141712 345.784 1.92421 354.055 5.48922C362.397 8.98292 369.599 14.0809 375.659 20.7831C381.72 27.414 386.426 35.4709 389.777 44.9538C393.128 54.4367 394.803 65.1317 394.803 77.0388ZM356.729 83.3489V76.8249C356.729 69.1245 356.052 62.351 354.697 56.5044C353.414 50.5865 351.488 45.6311 348.922 41.6383C346.355 37.6455 343.182 34.6509 339.403 32.6545C335.696 30.5868 331.453 29.553 326.676 29.553C321.685 29.553 317.336 30.5868 313.628 32.6545C309.921 34.6509 306.819 37.6455 304.324 41.6383C301.828 45.6311 299.939 50.5865 298.655 56.5044C297.443 62.351 296.837 69.1245 296.837 76.8249V83.3489C296.837 90.978 297.443 97.7515 298.655 103.669C299.939 109.516 301.828 114.471 304.324 118.535C306.89 122.6 310.028 125.665 313.735 127.733C317.514 129.801 321.899 130.835 326.89 130.835C331.667 130.835 335.909 129.801 339.617 127.733C343.325 125.665 346.426 122.6 348.922 118.535C351.488 114.471 353.414 109.516 354.697 103.669C356.052 97.7515 356.729 90.978 356.729 83.3489ZM544.319 2.28071V158H506.887L451.808 61.1032V158H414.268V2.28071H451.808L506.887 99.1775V2.28071H544.319ZM640.254 2.28071V158H602.714V2.28071H640.254ZM687.098 2.28071V31.2642H556.94V2.28071H687.098ZM810.197 129.123V158H727.204V129.123H810.197ZM740.573 2.28071V158H703.033V2.28071H740.573ZM799.502 64.0978V92.0118H727.204V64.0978H799.502ZM810.518 2.28071V31.2642H727.204V2.28071H810.518ZM955.649 2.28071V158H918.217L863.138 61.1032V158H825.598V2.28071H863.138L918.217 99.1775V2.28071H955.649ZM1029.98 158H995.435L995.649 129.123H1029.98C1037.11 129.123 1043.13 127.412 1048.05 123.99C1053.05 120.567 1056.82 115.47 1059.39 108.696C1062.03 101.851 1063.35 93.4378 1063.35 83.4558V76.718C1063.35 69.2315 1062.6 62.6718 1061.1 57.0391C1059.68 51.3351 1057.54 46.5937 1054.69 42.8148C1051.83 38.9646 1048.27 36.0769 1043.99 34.1518C1039.78 32.2267 1034.94 31.2642 1029.44 31.2642H994.793V2.28071H1029.44C1040 2.28071 1049.66 4.09886 1058.43 7.73517C1067.27 11.3002 1074.9 16.4338 1081.32 23.136C1087.8 29.7669 1092.8 37.6455 1096.29 46.7719C1099.85 55.827 1101.64 65.8803 1101.64 76.9319V83.4558C1101.64 94.436 1099.85 104.489 1096.29 113.616C1092.8 122.742 1087.84 130.621 1081.42 137.252C1075.01 143.883 1067.41 149.016 1058.64 152.652C1049.94 156.217 1040.39 158 1029.98 158ZM1016.93 2.28071V158H979.392V2.28071H1016.93Z" fill="#FF6464" fill-opacity="0.2"/>
</svg>
