<svg width="64" height="64" viewBox="0 0 64 64" fill="none" xmlns="http://www.w3.org/2000/svg">
<path d="M48.6316 0.779297H15.5743C7.51976 0.779297 0.990234 7.30882 0.990234 15.3634V48.4207C0.990234 56.4753 7.51976 63.0048 15.5743 63.0048H48.6316C56.6862 63.0048 63.2157 56.4753 63.2157 48.4207V15.3634C63.2157 7.30882 56.6862 0.779297 48.6316 0.779297Z" fill="#99424F"/>
<path d="M52.8493 31.5269C52.8493 28.5992 50.8367 26.1362 48.1345 25.4325L54.1864 7.58594H24.1935L30.2597 25.4889C27.6416 26.249 25.7136 28.6697 25.7136 31.5408C25.7136 33.6521 26.769 35.524 28.3735 36.678C27.7403 37.5789 27.0084 38.4094 26.1779 39.1975C24.6157 40.6612 22.8846 41.7871 21.0127 42.5331C19.3236 41.3931 18.5917 39.3805 19.2534 37.5789C21.8289 36.7908 23.7008 34.384 23.7008 31.5549C23.7008 28.0785 20.8719 25.2636 17.4094 25.2636C13.9331 25.2636 11.1042 28.0926 11.1042 31.569C11.1042 33.286 11.8079 34.8626 12.9338 35.9885C12.8354 36.1856 12.7369 36.3825 12.6383 36.5937C11.6951 38.5361 10.6256 40.7317 10.2173 43.1947C9.40107 48.1207 10.7382 52.0757 13.9613 54.3136C15.777 55.5662 17.7755 56.1996 19.9288 56.1996C23.6305 56.1996 27.3884 54.3418 31.0196 52.5402C33.6095 51.2595 36.2834 49.9224 38.9154 49.2748C39.8867 49.0356 40.9 48.8949 41.9698 48.7401C44.1372 48.4304 46.3752 48.1066 48.3878 46.9384C50.7382 45.5734 52.3427 43.2932 52.8072 40.6753C53.1589 38.6627 52.8072 36.636 51.9064 34.8626C52.5117 33.8913 52.8493 32.7513 52.8493 31.5269ZM50.1048 31.5269C50.1048 33.4832 48.5144 35.0736 46.5579 35.0736C44.6017 35.0736 43.0113 33.4832 43.0113 31.5269C43.0113 30.8935 43.18 30.2883 43.4756 29.7676C43.5908 29.569 43.7227 29.3806 43.8699 29.2044C44.0106 29.0357 44.1795 28.8809 44.3623 28.7402L44.3764 28.7261C44.4889 28.6415 44.6158 28.5571 44.7425 28.4726C44.7425 28.4726 44.7566 28.4726 44.7566 28.4585C44.8127 28.4305 44.8691 28.3882 44.9253 28.36C44.9394 28.36 44.9534 28.3459 44.9675 28.3459C45.0239 28.3177 45.0942 28.2898 45.1647 28.2616C45.2349 28.2334 45.3054 28.2052 45.3616 28.177C45.3757 28.177 45.3898 28.1629 45.4039 28.1629C45.4602 28.149 45.5164 28.1208 45.5728 28.1067C45.5869 28.1067 45.6151 28.0926 45.6292 28.0926C45.6994 28.0785 45.7558 28.0644 45.8261 28.0503H45.8402L46.0514 28.0083C46.0655 28.0083 46.0934 28.0083 46.1075 27.9942C46.1639 27.9942 46.2203 27.9801 46.2765 27.9801H46.347C46.4172 27.9801 46.4877 27.966 46.572 27.966H46.7551C46.8115 27.966 46.8535 27.966 46.9099 27.9801H46.9381C47.0506 27.9942 47.1632 28.0083 47.2757 28.0362C48.8802 28.3741 50.1048 29.8097 50.1048 31.5269ZM28.1202 10.4009H50.2596L45.1788 25.3902C44.9675 25.4325 44.7566 25.503 44.5453 25.5732L39.1971 14.6655L33.8345 25.503C33.6236 25.4325 33.3982 25.3902 33.1731 25.3482L28.1202 10.4009ZM38.1835 30.3024C37.9161 28.9793 37.2407 27.7971 36.2834 26.9244L39.1971 21.0412L42.1385 27.0511C41.2659 27.9237 40.6327 29.0357 40.3791 30.3024H38.1835ZM31.1323 28.0785C31.2026 28.0644 31.259 28.0503 31.3292 28.0362H31.3715C31.4279 28.0221 31.4841 28.0221 31.5405 28.0083H31.5966C31.653 28.0083 31.6953 27.9942 31.7514 27.9942H32.3005C32.3567 27.9942 32.399 28.0083 32.4413 28.0083C32.4695 28.0083 32.4833 28.0083 32.5115 28.0221C32.5679 28.0362 32.6102 28.0362 32.6663 28.0503C32.6804 28.0503 32.6945 28.0503 32.7227 28.0644C32.793 28.0785 32.8635 28.0926 32.9196 28.1067H32.9337C32.9901 28.1208 33.0465 28.1349 33.1027 28.1629C33.1168 28.1629 33.1308 28.177 33.159 28.177C33.2013 28.1911 33.2575 28.2052 33.2998 28.2334C33.3139 28.2334 33.328 28.2475 33.3421 28.2475C33.3982 28.2757 33.4546 28.2898 33.5108 28.3177H33.5249C33.5954 28.3459 33.6515 28.3741 33.7079 28.4164H33.722C33.7784 28.4446 33.8345 28.4866 33.8909 28.5148C33.905 28.5148 33.905 28.5289 33.9191 28.5289C33.9753 28.5571 34.0176 28.5992 34.074 28.6274L34.0878 28.6415C34.2567 28.7681 34.4116 28.9089 34.5664 29.0496L34.5805 29.0637C34.7212 29.2185 34.862 29.3875 34.9745 29.5705C35.3522 30.1478 35.5527 30.823 35.5516 31.5128C35.5516 33.4691 33.9612 35.0595 32.005 35.0595C30.0485 35.0595 28.4581 33.4691 28.4581 31.5128C28.444 29.8661 29.584 28.4725 31.1323 28.0785ZM17.2828 27.9801C19.2393 27.9801 20.8297 29.5705 20.8297 31.5269C20.8297 33.4832 19.2393 35.0736 17.2828 35.0736C15.3266 35.0736 13.7359 33.4832 13.7359 31.5269C13.7359 29.5705 15.3266 27.9801 17.2828 27.9801ZM50.0205 40.1826C49.7108 41.9842 48.5987 43.5605 46.9661 44.5036C45.4321 45.3903 43.5461 45.6718 41.5614 45.9533C40.4778 46.1081 39.3378 46.2771 38.2399 46.5444C35.3124 47.2622 32.4974 48.6696 29.767 50.0208C26.2766 51.7519 22.983 53.3846 19.9288 53.3846C18.3384 53.3846 16.917 52.9342 15.5658 51.9913C12.4693 49.8519 12.6242 45.8408 12.9902 43.6451C13.3281 41.5902 14.2709 39.662 15.1718 37.8183C15.2279 37.7055 15.2702 37.6071 15.3266 37.4945C15.6418 37.6085 15.9669 37.6933 16.2976 37.7478C15.7629 40.7317 17.2828 43.814 20.2385 45.334L20.7733 45.6154L21.3503 45.4044C23.8136 44.5318 26.0935 43.1101 28.1061 41.2101C29.2464 40.1406 30.2174 38.9865 31.0337 37.7337C31.3574 37.7901 31.6812 37.8042 32.005 37.8042C34.9325 37.8042 37.3955 35.7913 38.0992 33.0891H40.4637C41.1674 35.8054 43.6304 37.8042 46.5579 37.8042C47.7261 37.8042 48.81 37.4804 49.739 36.9316C50.1048 37.987 50.2173 39.0849 50.0205 40.1826Z" fill="white"/>
</svg>
