<svg width="165" height="165" viewBox="0 0 165 165" fill="none" xmlns="http://www.w3.org/2000/svg">
<path d="M41.6227 98.164C17.6687 98.164 0.0279084 85.036 0.0279084 63.9765C-0.150618 59.9155 0.528901 55.8624 2.02217 52.0816C3.51544 48.3008 5.7889 44.8773 8.69429 42.0342C11.5997 39.1912 15.0718 36.9925 18.8841 35.5816C22.6964 34.1708 26.7632 33.5793 30.8195 33.8459H30.9334C31.134 33.84 31.3314 33.7947 31.5144 33.7124C31.6974 33.6302 31.8625 33.5127 32.0001 33.3666C32.1377 33.2206 32.2451 33.0489 32.3163 32.8613C32.3875 32.6737 32.4209 32.4739 32.4149 32.2733V22.7919C32.481 16.7045 34.9536 10.8906 39.2923 6.62016C43.6311 2.34973 49.4835 -0.0301784 55.5712 0.000288965H151.319V33.8915H39.6398C38.7915 33.8145 37.9366 33.925 37.1357 34.215C36.3348 34.5051 35.6074 34.9677 35.005 35.57C34.4027 36.1723 33.9402 36.8997 33.6501 37.7006C33.36 38.5016 33.2496 39.3564 33.3266 40.2048V56.5464C33.2311 57.8159 33.4109 59.0911 33.8536 60.2847C34.2963 61.4783 34.9915 62.5623 35.8917 63.4625C36.792 64.3628 37.876 65.058 39.0696 65.5007C40.2632 65.9434 41.5384 66.1232 42.8079 66.0278H122.921C128.456 65.8867 133.963 66.8735 139.105 68.928C144.247 70.9824 148.917 74.0617 152.832 77.9783C156.746 81.8949 159.823 86.5669 161.875 91.7103C163.926 96.8536 164.91 102.361 164.766 107.896V122.87C164.907 128.408 163.92 133.916 161.866 139.061C159.812 144.205 156.734 148.879 152.818 152.797C148.902 156.715 144.23 159.796 139.087 161.853C133.943 163.909 128.436 164.899 122.898 164.761H8.62032V130.802H122.191C123.461 130.897 124.736 130.717 125.93 130.275C127.123 129.832 128.207 129.137 129.107 128.236C130.008 127.336 130.703 126.252 131.146 125.059C131.588 123.865 131.768 122.59 131.673 121.32V107.645C131.768 106.376 131.588 105.101 131.146 103.907C130.703 102.713 130.008 101.629 129.107 100.729C128.207 99.829 127.123 99.1338 125.93 98.6911C124.736 98.2484 123.461 98.0686 122.191 98.164H41.6227Z" fill="#EA580C"/>
</svg>
