<svg width="105" height="64" viewBox="0 0 105 64" fill="none" xmlns="http://www.w3.org/2000/svg">
<path d="M24.8902 16.9569H44.5729V18.4992H26.687V30.1879H43.5112V31.7301H26.687V44.5552H44.8179V46.0975H24.8902V16.9569ZM46.3697 16.9569H48.4931L57.8036 29.782L67.1958 16.9569L80.0998 0.722656L58.8653 31.1619L69.8092 46.0975H67.6041L57.7219 32.4607L47.7581 46.0975H45.6346L56.6602 31.1619L46.3697 16.9569ZM70.6259 18.4992V16.9569H93.0854V18.4992H82.7132V46.0975H80.9165V18.4992H70.6259ZM0.225586 16.9569H2.4307L33.629 63.0623L20.725 46.0975L2.10402 19.1486L2.02235 46.0975H0.225586V16.9569ZM92.9221 44.0682C93.3305 44.0682 93.5755 43.8247 93.5755 43.4188C93.5755 43.013 93.3305 42.7694 92.9221 42.7694C92.5137 42.7694 92.2687 43.013 92.2687 43.4188C92.2687 43.8247 92.5954 44.0682 92.9221 44.0682ZM94.7189 42.3636C94.7189 43.4188 95.5356 44.1494 96.679 44.1494C97.904 44.1494 98.6391 43.4188 98.6391 42.1201V37.6557H97.659V42.1201C97.659 42.8506 97.3323 43.1753 96.679 43.1753C96.1073 43.1753 95.6989 42.8506 95.6989 42.2824H94.7189V42.3636ZM99.8641 42.2824C99.9458 43.4188 100.844 44.1494 102.314 44.1494C103.784 44.1494 104.764 43.4188 104.764 42.2013C104.764 41.2272 104.193 40.7402 102.968 40.4155L102.233 40.2531C101.416 40.0908 101.089 39.7661 101.089 39.3603C101.089 38.7921 101.579 38.3862 102.396 38.3862C103.131 38.3862 103.621 38.7109 103.703 39.3603H104.683C104.601 38.305 103.703 37.5745 102.396 37.5745C101.008 37.5745 100.109 38.305 100.109 39.4414C100.109 40.3343 100.599 40.9025 101.743 41.146L102.559 41.3084C103.376 41.4707 103.784 41.7954 103.784 42.2824C103.784 42.8506 103.213 43.2565 102.396 43.2565C101.579 43.2565 100.926 42.8506 100.844 42.2824H99.8641Z" fill="white"/>
</svg>
