<svg width="63" height="63" viewBox="0 0 63 63" fill="none" xmlns="http://www.w3.org/2000/svg">
<path d="M38.4752 39.4198L37.2861 41.7255C37.11 42.0667 36.8566 42.3501 36.5512 42.5471C36.2458 42.7441 35.8994 42.8479 35.5467 42.8479H26.4361C26.0834 42.8479 25.7369 42.7441 25.4316 42.5471C25.1262 42.3501 24.8727 42.0667 24.6967 41.7255L23.5073 39.4198H38.4752ZM41.8046 32.9655L39.7077 37.0306H22.2751L20.1782 32.9655H41.8046ZM39.7847 26.654L41.808 30.5763H20.1748L22.198 26.654H39.7847ZM35.5464 20.6875C35.8992 20.6874 36.2457 20.7912 36.5511 20.9882C36.8565 21.1852 37.11 21.4687 37.2861 21.8099L38.5522 24.2648H23.4305L24.6969 21.8099C24.873 21.4687 25.1264 21.1853 25.4318 20.9883C25.7372 20.7912 26.0836 20.6875 26.4363 20.6875H35.5467H35.5464Z" fill="#00435B"/>
<path d="M13.1775 19.6179C12.1683 14.1544 11.9515 9.9638 12.604 6.92107C12.9919 5.11132 13.7011 3.63497 14.7798 2.56962C15.9185 1.44506 17.3581 0.893185 18.9759 0.893185C21.6443 0.893185 24.4498 2.25191 27.4476 4.83282C28.6707 5.88573 29.9397 7.15469 31.2577 8.6405C31.3628 8.48989 31.4812 8.34766 31.6135 8.21598C35.3398 4.50889 38.4771 2.20513 41.1605 1.31716C42.756 0.788813 44.254 0.73852 45.618 1.25119C47.058 1.79197 48.2053 2.91059 49.0149 4.47698C50.3508 7.06221 50.7029 10.4592 50.205 14.6538C50.002 16.3635 49.655 18.2257 49.1646 20.2436C49.3496 20.2685 49.5351 20.3145 49.7187 20.3823C54.4464 22.1318 57.7944 24.0126 59.8213 26.1625C61.0274 27.4415 61.8147 28.8654 62.0996 30.4418C62.3999 32.1055 62.1068 33.7741 61.2984 35.3394C59.9649 37.9211 57.513 39.9569 54.0202 41.5696C52.6179 42.2171 51.0309 42.8036 49.2578 43.3312C49.3387 43.535 49.4017 43.7516 49.4436 43.9788C50.4528 49.4423 50.6693 53.6329 50.0171 56.6756C49.6291 58.4854 48.9197 59.9617 47.841 61.0271C46.7025 62.1516 45.2627 62.7035 43.6451 62.7035C40.9764 62.7035 38.1712 61.3448 35.1734 58.7639C33.9373 57.6996 32.6542 56.415 31.3209 54.9086C31.1806 55.1535 31.0107 55.3757 30.8162 55.5689C27.0899 59.2765 23.9526 61.5798 21.2692 62.468C19.6736 62.9963 18.1757 63.0466 16.8117 62.534C15.3717 61.9932 14.2244 60.8746 13.4148 59.3082C12.0789 56.7229 11.7267 53.326 12.2247 49.1314C12.4351 47.36 12.8001 45.4246 13.3189 43.322C13.1121 43.2985 12.9083 43.2499 12.711 43.1768C7.98326 41.4273 4.63526 39.5465 2.60839 37.3966C1.4023 36.1176 0.614949 34.6937 0.330136 33.1173C0.0298239 31.4536 0.322871 29.7847 1.13129 28.2194C2.46478 25.638 4.91668 23.6019 8.40951 21.9896C9.85367 21.3225 11.4935 20.7206 13.3308 20.1809C13.2642 19.9989 13.2129 19.8105 13.1775 19.6179Z" fill="#002B3B"/>
<path d="M46.1447 44.5158C46.3703 44.4711 46.6027 44.5251 46.7936 44.6666C46.9846 44.808 47.1195 45.0261 47.1703 45.2756L47.1759 45.3059L47.226 45.5965C48.8511 55.1349 47.7063 59.9044 43.7918 59.9044C39.9621 59.9044 35.0866 55.8347 29.1656 47.6953C29.0604 47.5507 28.9937 47.376 28.973 47.1911C28.9523 47.0062 28.9784 46.8185 29.0485 46.6494C29.1186 46.4803 29.2297 46.3365 29.3693 46.2343C29.5089 46.1322 29.6713 46.0758 29.8382 46.0716H29.8658L30.1777 46.0741C32.6694 46.0892 35.0915 45.9921 37.4443 45.7831C40.2215 45.5362 43.1217 45.1139 46.1447 44.5158ZM19.2616 37.3055L19.2766 37.3339L19.4331 37.6386C20.6869 40.0721 21.993 42.3818 23.3517 44.568C24.952 47.1421 26.7515 49.7482 28.75 52.3861C28.8984 52.5819 28.9734 52.834 28.9594 53.09C28.9455 53.3459 28.8437 53.586 28.6752 53.7603L28.6527 53.7827L28.4517 53.976C21.8382 60.3024 17.5399 61.5654 15.5566 57.7648C13.615 54.045 14.3191 47.2808 17.6683 37.4726C17.7276 37.2988 17.8293 37.147 17.9618 37.0345C18.0944 36.9219 18.2525 36.853 18.4184 36.8356C18.5842 36.8182 18.7511 36.853 18.9001 36.9361C19.0491 37.0191 19.1744 37.1471 19.2616 37.3055ZM49.5004 23.2304L49.5275 23.2404L49.7765 23.3361C57.9394 26.5065 61.0406 29.9905 59.0804 33.7882C57.1632 37.5023 51.5895 40.2068 42.3595 41.9011C42.1922 41.9318 42.0206 41.9087 41.8646 41.8344C41.7087 41.7602 41.5749 41.6378 41.479 41.4817C41.3832 41.3256 41.3291 41.1423 41.3232 40.9531C41.3173 40.7639 41.3598 40.5768 41.4457 40.4136C42.7676 37.9028 43.9584 35.4049 45.0178 32.9191C46.219 30.1003 47.3464 27.0743 48.3999 23.842C48.4764 23.6071 48.6293 23.4129 48.8281 23.2979C49.027 23.183 49.2573 23.1557 49.4733 23.2215L49.5004 23.2304ZM20.6663 21.6343C20.7673 21.7005 20.8557 21.7883 20.9263 21.8927C20.9969 21.9971 21.0484 22.116 21.0779 22.2426C21.1074 22.3692 21.1142 22.501 21.098 22.6306C21.0818 22.7601 21.0429 22.8848 20.9836 22.9976C19.6612 25.5082 18.4706 28.0064 17.4113 30.4921C16.2101 33.3109 15.0827 36.3367 14.0292 39.5692C13.9509 39.8092 13.7931 40.0066 13.5883 40.1204C13.3835 40.2342 13.1473 40.2559 12.9287 40.1808L12.9015 40.1708L12.6526 40.0748C4.48963 36.9047 1.38843 33.4205 3.34869 29.623C5.26585 25.9087 10.8395 23.2044 20.0696 21.5102C20.2754 21.4723 20.4866 21.5161 20.6663 21.6343ZM46.8724 6.01959C48.814 9.73967 48.11 16.5038 44.7608 26.3121C44.7015 26.4859 44.5998 26.6376 44.4672 26.7502C44.3347 26.8628 44.1765 26.9316 44.0107 26.949C43.8449 26.9664 43.678 26.9316 43.5289 26.8486C43.3799 26.7656 43.2547 26.6376 43.1674 26.4792L43.1524 26.4508L42.996 26.1461C41.7422 23.7125 40.4361 21.4028 39.0774 19.2167C37.477 16.6425 35.6776 14.0365 33.679 11.3985C33.5307 11.2028 33.4557 10.9507 33.4696 10.6947C33.4836 10.4387 33.5854 10.1987 33.7539 10.0244L33.7764 10.0019L33.9774 9.80862C40.5908 3.48222 44.8892 2.21921 46.8724 6.01959ZM18.972 3.75586C22.8019 3.75586 27.6774 7.82528 33.5981 15.9647C33.7033 16.1093 33.7701 16.284 33.7908 16.4689C33.8115 16.6538 33.7853 16.8415 33.7153 17.0106C33.6452 17.1797 33.5341 17.3235 33.3945 17.4257C33.2549 17.5278 33.0924 17.5842 32.9256 17.5884H32.898L32.586 17.5862C30.0947 17.5711 27.6723 17.6681 25.3197 17.8772C22.5423 18.124 19.6421 18.5464 16.6191 19.1445C16.3935 19.1891 16.1612 19.135 15.9703 18.9936C15.7794 18.8521 15.6445 18.6341 15.5937 18.3847L15.5879 18.3541L15.5377 18.0637C13.9127 8.52506 15.0572 3.75586 18.972 3.75586Z" fill="#FF4154"/>
<path d="M27.1692 20.8125H34.8166C35.366 20.8125 35.9057 20.9743 36.3812 21.2817C36.8566 21.5892 37.251 22.0312 37.5245 22.5633L41.3643 30.0332C41.6358 30.5612 41.7786 31.1595 41.7786 31.7683C41.7786 32.3771 41.6358 32.9754 41.3643 33.5034L37.5245 40.9733C37.251 41.5053 36.8566 41.9474 36.3811 42.2548C35.9057 42.5622 35.366 42.7241 34.8166 42.7241H27.1692C26.0508 42.7241 25.0179 42.0562 24.4611 40.9733L20.6217 33.5034C20.3503 32.9754 20.2074 32.3771 20.2074 31.7683C20.2074 31.1595 20.3503 30.5612 20.6217 30.0332L24.4614 22.5633C24.7348 22.0312 25.1293 21.5892 25.6048 21.2818C26.0803 20.9743 26.6198 20.8125 27.1692 20.8125ZM33.6509 23.067C34.7698 23.067 35.8035 23.7357 36.3598 24.8195L39.0374 30.0348C39.3083 30.5625 39.4508 31.1601 39.4508 31.7683C39.4508 32.3765 39.3083 32.9741 39.0374 33.5018L36.3598 38.7171C36.0864 39.2496 35.6919 39.692 35.2163 39.9997C34.7406 40.3073 34.2006 40.4693 33.6509 40.4693H28.3349C27.216 40.4693 26.1823 39.8009 25.626 38.7171L22.9484 33.5018C22.6775 32.9741 22.535 32.3765 22.535 31.7683C22.535 31.1601 22.6775 30.5625 22.9484 30.0348L25.626 24.8195C25.8994 24.2871 26.2938 23.8447 26.7695 23.537C27.2451 23.2294 27.785 23.0673 28.3347 23.0673L33.6509 23.067ZM32.3947 25.533H29.5911C29.0419 25.533 28.5024 25.6947 28.027 26.0019C27.5517 26.3091 27.1573 26.7508 26.8837 27.2825L25.4689 30.0316C25.1969 30.56 25.0538 31.1588 25.0538 31.7683C25.0538 32.3778 25.1969 32.9766 25.4689 33.505L26.8837 36.2544C27.1573 36.7861 27.5517 37.2278 28.027 37.535C28.5024 37.8421 29.0419 38.0039 29.5911 38.0038H32.3947C33.5126 38.0038 34.5453 37.3365 35.1021 36.2544L36.517 33.505C36.7889 32.9766 36.9321 32.3778 36.9321 31.7683C36.9321 31.1588 36.7889 30.56 36.517 30.0316L35.1021 27.2822C34.8285 26.7505 34.4341 26.3088 33.9588 26.0016C33.4834 25.6945 32.9439 25.533 32.3947 25.533ZM31.1852 27.8933C32.3022 27.8933 33.3341 28.5595 33.8912 29.64L34.0919 30.0294C34.3646 30.5584 34.5081 31.158 34.5081 31.7683C34.5081 32.3786 34.3646 32.9782 34.0919 33.5072L33.8912 33.8966C33.6174 34.4275 33.2231 34.8685 32.7481 35.1752C32.273 35.4819 31.7339 35.6433 31.1852 35.6433H30.8006C30.2519 35.6433 29.7128 35.4819 29.2378 35.1752C28.7627 34.8685 28.3684 34.4275 28.0946 33.8966L27.8939 33.5072C27.6212 32.9782 27.4777 32.3786 27.4777 31.7683C27.4777 31.158 27.6212 30.5584 27.8939 30.0294L28.0946 29.64C28.3684 29.1091 28.7627 28.6681 29.2378 28.3614C29.7128 28.0547 30.2519 27.8933 30.8006 27.8933H31.1852ZM30.9934 30.2184C30.7495 30.2183 30.5099 30.2898 30.2986 30.4259C30.0873 30.5619 29.9118 30.7576 29.7897 30.9934C29.6678 31.2289 29.6036 31.4962 29.6036 31.7683C29.6036 32.0404 29.6678 32.3077 29.7897 32.5433C29.9117 32.779 30.0871 32.9748 30.2983 33.1109C30.5096 33.247 30.7491 33.3187 30.993 33.3187C31.2369 33.3187 31.4765 33.247 31.6877 33.1109C31.8989 32.9748 32.0743 32.779 32.1963 32.5433C32.3182 32.3077 32.3824 32.0404 32.3824 31.7683C32.3824 31.4962 32.3182 31.2289 32.1963 30.9934C32.0744 30.7577 31.899 30.562 31.6878 30.426C31.4767 30.29 31.2372 30.2184 30.9934 30.2184ZM19.7295 31.7683H22.2289H19.7295Z" fill="#FFD94C"/>
</svg>
