<svg width="63" height="64" viewBox="0 0 63 64" fill="none" xmlns="http://www.w3.org/2000/svg">
<path d="M47.6414 0.779297H14.5841C6.52952 0.779297 0 7.30882 0 15.3634V48.4207C0 56.4753 6.52952 63.0048 14.5841 63.0048H47.6414C55.696 63.0048 62.2255 56.4753 62.2255 48.4207V15.3634C62.2255 7.30882 55.696 0.779297 47.6414 0.779297Z" fill="#242938"/>
<path d="M31.1128 36.4991C33.6174 36.4991 35.6475 34.4687 35.6475 31.9644C35.6475 29.46 33.6174 27.4297 31.1128 27.4297C28.6085 27.4297 26.5781 29.46 26.5781 31.9644C26.5781 34.4687 28.6085 36.4991 31.1128 36.4991Z" fill="#00D8FF"/>
<path d="M31.113 22.7422C37.2014 22.7422 42.8573 23.6158 47.1219 25.0842C52.2602 26.853 55.4193 29.5342 55.4193 31.9623C55.4193 34.4923 52.0713 37.3409 46.5534 39.169C42.3819 40.5511 36.8924 41.2725 31.113 41.2725C25.1875 41.2725 19.5762 40.5953 15.3575 39.1537C10.0202 37.3294 6.80566 34.4442 6.80566 31.9623C6.80566 29.5539 9.82214 26.8933 14.8882 25.1272C19.1686 23.6347 24.9641 22.7422 31.112 22.7422H31.113Z" stroke="#00D8FF" stroke-width="2.18264"/>
<path d="M23.0867 27.3801C26.1284 22.106 29.7105 17.6428 33.113 14.6822C37.2121 11.1147 41.1133 9.71757 43.2164 10.9302C45.4081 12.1942 46.2032 16.5179 45.0304 22.211C44.1444 26.515 42.0263 31.6307 39.1389 36.6374C36.1786 41.7705 32.789 46.293 29.4329 49.2264C25.1863 52.9385 21.0806 54.2819 18.9307 53.0421C16.8444 51.8398 16.0467 47.897 17.0476 42.6261C17.8933 38.1724 20.0155 32.706 23.0857 27.3801H23.0867Z" stroke="#00D8FF" stroke-width="2.18264"/>
<path d="M23.0942 36.6503C20.044 31.3821 17.9672 26.0487 17.1004 21.6224C16.0569 16.2892 16.7946 12.2118 18.896 10.9955C21.0858 9.72762 25.2284 11.1982 29.5749 15.0576C32.8612 17.9754 36.2357 22.3645 39.1314 27.3664C42.1002 32.4946 44.3253 37.6902 45.1908 42.0625C46.2861 47.5957 45.3996 51.8234 43.2516 53.0667C41.1676 54.2733 37.3536 52.996 33.2868 49.4963C29.8508 46.5396 26.1746 41.9711 23.0942 36.6503Z" stroke="#00D8FF" stroke-width="2.18264"/>
</svg>
