<svg width="63" height="64" viewBox="0 0 63 64" fill="none" xmlns="http://www.w3.org/2000/svg">
<path d="M48.406 0.779297H15.3487C7.29417 0.779297 0.764648 7.30882 0.764648 15.3634V48.4207C0.764648 56.4753 7.29417 63.0048 15.3487 63.0048H48.406C56.4606 63.0048 62.9901 56.4753 62.9901 48.4207V15.3634C62.9901 7.30882 56.4606 0.779297 48.406 0.779297Z" fill="#007ACC"/>
<path d="M14.5255 32.0974L14.5059 34.6457H22.6049V57.6591H28.334V34.6457H36.433V32.1467C36.433 30.7639 36.4036 29.6083 36.364 29.5787C36.3344 29.5393 31.4057 29.5194 25.4301 29.5293L14.5554 29.559L14.5255 32.0974ZM50.9751 29.4866C52.5553 29.8818 53.7604 30.583 54.8666 31.7286C55.4395 32.3412 56.2888 33.4573 56.3581 33.724C56.3778 33.803 53.6714 35.6204 52.032 36.6376C51.9726 36.6772 51.7354 36.4203 51.4688 36.0253C50.6688 34.8598 49.8293 34.3559 48.5451 34.2672C46.6587 34.1386 45.4438 35.1265 45.4538 36.7759C45.4538 37.2599 45.5228 37.5462 45.7204 37.9414C46.1351 38.8007 46.9056 39.3143 49.3256 40.3612C53.7801 42.2775 55.6862 43.5417 56.8717 45.3392C58.1952 47.3443 58.4915 50.5445 57.5926 52.9249C56.605 55.5126 54.1554 57.2707 50.7082 57.8536C49.6416 58.0412 47.113 58.0116 45.9674 57.8043C43.4684 57.3597 41.098 56.1251 39.6362 54.5053C39.0633 53.8731 37.9471 52.2237 38.0164 52.105C38.0458 52.0657 38.3027 51.9077 38.5891 51.7397C38.8657 51.5817 39.9128 50.9791 40.9004 50.4062L42.6882 49.3691L43.0635 49.9223C43.587 50.7222 44.7326 51.8187 45.4241 52.184C47.4093 53.2312 50.1355 53.0829 51.4787 51.878C52.0516 51.3544 52.2886 50.8112 52.2886 50.0112C52.2886 49.2901 52.1997 48.9741 51.8244 48.4308C51.3404 47.7395 50.3528 47.1567 47.5476 45.9418C44.3376 44.559 42.9548 43.6997 41.6906 42.3366C40.9597 41.5466 40.2682 40.2822 39.9818 39.2253C39.7449 38.3464 39.6855 36.1437 39.8732 35.2548C40.5348 32.1535 42.8758 29.9904 46.2537 29.3483C47.3502 29.1409 49.8983 29.2199 50.9751 29.4866Z" fill="white"/>
</svg>
